<svg width="34" height="34" viewBox="0 0 34 34" fill="none" xmlns="http://www.w3.org/2000/svg">
<path d="M16.9999 33.6667C14.7221 33.6667 12.5694 33.2292 10.5416 32.3542C8.51381 31.4792 6.74297 30.2847 5.22908 28.7708C3.7152 27.2569 2.52075 25.4861 1.64575 23.4583C0.770752 21.4306 0.333252 19.2778 0.333252 17C0.333252 14.6944 0.784641 12.5278 1.68742 10.5C2.5902 8.47222 3.81242 6.70833 5.35409 5.20833C6.89575 3.70833 8.69436 2.52083 10.7499 1.64583C12.8055 0.770833 14.9999 0.333333 17.3333 0.333333C19.5555 0.333333 21.6527 0.715278 23.6249 1.47917C25.5971 2.24306 27.3263 3.29861 28.8124 4.64583C30.2985 5.99306 31.4791 7.59028 32.3541 9.4375C33.2291 11.2847 33.6666 13.2778 33.6666 15.4167C33.6666 18.6111 32.6944 21.0625 30.7499 22.7708C28.8055 24.4792 26.4444 25.3333 23.6666 25.3333H20.5833C20.3333 25.3333 20.1596 25.4028 20.0624 25.5417C19.9652 25.6806 19.9166 25.8333 19.9166 26C19.9166 26.3333 20.1249 26.8125 20.5416 27.4375C20.9583 28.0625 21.1666 28.7778 21.1666 29.5833C21.1666 30.9722 20.7846 32 20.0208 32.6667C19.2569 33.3333 18.2499 33.6667 16.9999 33.6667ZM7.83325 18.6667C8.55547 18.6667 9.1527 18.4306 9.62492 17.9583C10.0971 17.4861 10.3333 16.8889 10.3333 16.1667C10.3333 15.4444 10.0971 14.8472 9.62492 14.375C9.1527 13.9028 8.55547 13.6667 7.83325 13.6667C7.11103 13.6667 6.51381 13.9028 6.04158 14.375C5.56936 14.8472 5.33325 15.4444 5.33325 16.1667C5.33325 16.8889 5.56936 17.4861 6.04158 17.9583C6.51381 18.4306 7.11103 18.6667 7.83325 18.6667ZM12.8333 12C13.5555 12 14.1527 11.7639 14.6249 11.2917C15.0971 10.8194 15.3333 10.2222 15.3333 9.5C15.3333 8.77778 15.0971 8.18056 14.6249 7.70833C14.1527 7.23611 13.5555 7 12.8333 7C12.111 7 11.5138 7.23611 11.0416 7.70833C10.5694 8.18056 10.3333 8.77778 10.3333 9.5C10.3333 10.2222 10.5694 10.8194 11.0416 11.2917C11.5138 11.7639 12.111 12 12.8333 12ZM21.1666 12C21.8888 12 22.486 11.7639 22.9583 11.2917C23.4305 10.8194 23.6666 10.2222 23.6666 9.5C23.6666 8.77778 23.4305 8.18056 22.9583 7.70833C22.486 7.23611 21.8888 7 21.1666 7C20.4444 7 19.8471 7.23611 19.3749 7.70833C18.9027 8.18056 18.6666 8.77778 18.6666 9.5C18.6666 10.2222 18.9027 10.8194 19.3749 11.2917C19.8471 11.7639 20.4444 12 21.1666 12ZM26.1666 18.6667C26.8888 18.6667 27.486 18.4306 27.9583 17.9583C28.4305 17.4861 28.6666 16.8889 28.6666 16.1667C28.6666 15.4444 28.4305 14.8472 27.9583 14.375C27.486 13.9028 26.8888 13.6667 26.1666 13.6667C25.4444 13.6667 24.8471 13.9028 24.3749 14.375C23.9027 14.8472 23.6666 15.4444 23.6666 16.1667C23.6666 16.8889 23.9027 17.4861 24.3749 17.9583C24.8471 18.4306 25.4444 18.6667 26.1666 18.6667ZM16.9999 30.3333C17.2499 30.3333 17.4513 30.2639 17.6041 30.125C17.7569 29.9861 17.8333 29.8056 17.8333 29.5833C17.8333 29.1944 17.6249 28.7361 17.2083 28.2083C16.7916 27.6806 16.5833 26.8889 16.5833 25.8333C16.5833 24.6667 16.986 23.7361 17.7916 23.0417C18.5971 22.3472 19.5833 22 20.7499 22H23.6666C25.4999 22 27.0694 21.4653 28.3749 20.3958C29.6805 19.3264 30.3333 17.6667 30.3333 15.4167C30.3333 12.0556 29.0485 9.25694 26.4791 7.02083C23.9096 4.78472 20.861 3.66667 17.3333 3.66667C13.5555 3.66667 10.3333 4.95833 7.66659 7.54167C4.99992 10.125 3.66659 13.2778 3.66659 17C3.66659 20.6944 4.9652 23.8403 7.56242 26.4375C10.1596 29.0347 13.3055 30.3333 16.9999 30.3333Z" fill="white"/>
</svg>
