<svg width="26" height="38" viewBox="0 0 26 38" fill="none" xmlns="http://www.w3.org/2000/svg">
<path d="M3.66659 37.3333C2.74992 37.3333 1.9652 37.0069 1.31242 36.3542C0.659641 35.7014 0.333252 34.9167 0.333252 34V3.99999C0.333252 3.08332 0.659641 2.2986 1.31242 1.64582C1.9652 0.993045 2.74992 0.666656 3.66659 0.666656H20.3333C21.2499 0.666656 22.0346 0.993045 22.6874 1.64582C23.3402 2.2986 23.6666 3.08332 23.6666 3.99999V9.16666C24.1666 9.3611 24.5694 9.66666 24.8749 10.0833C25.1805 10.5 25.3333 10.9722 25.3333 11.5V14.8333C25.3333 15.3611 25.1805 15.8333 24.8749 16.25C24.5694 16.6667 24.1666 16.9722 23.6666 17.1667V34C23.6666 34.9167 23.3402 35.7014 22.6874 36.3542C22.0346 37.0069 21.2499 37.3333 20.3333 37.3333H3.66659ZM3.66659 34H20.3333V3.99999H3.66659V34ZM8.66658 32.3333H15.3333C15.8055 32.3333 16.2013 32.1736 16.5208 31.8542C16.8402 31.5347 16.9999 31.1389 16.9999 30.6667C16.9999 30.1944 16.8402 29.7986 16.5208 29.4792C16.2013 29.1597 15.8055 29 15.3333 29H8.66658C8.19436 29 7.79853 29.1597 7.47908 29.4792C7.15964 29.7986 6.99992 30.1944 6.99992 30.6667C6.99992 31.1389 7.15964 31.5347 7.47908 31.8542C7.79853 32.1736 8.19436 32.3333 8.66658 32.3333Z" fill="white"/>
</svg>
