<svg width="40" height="40" viewBox="0 0 40 40" fill="none" xmlns="http://www.w3.org/2000/svg">
<path d="M14.9999 20.8333H16.6666V17.5H18.3333C18.8055 17.5 19.2013 17.3403 19.5208 17.0208C19.8402 16.7014 19.9999 16.3056 19.9999 15.8333V14.1667C19.9999 13.6944 19.8402 13.2986 19.5208 12.9792C19.2013 12.6597 18.8055 12.5 18.3333 12.5H14.9999V20.8333ZM16.6666 15.8333V14.1667H18.3333V15.8333H16.6666ZM21.6666 20.8333H24.9999C25.4721 20.8333 25.868 20.6736 26.1874 20.3542C26.5069 20.0347 26.6666 19.6389 26.6666 19.1667V14.1667C26.6666 13.6944 26.5069 13.2986 26.1874 12.9792C25.868 12.6597 25.4721 12.5 24.9999 12.5H21.6666V20.8333ZM23.3333 19.1667V14.1667H24.9999V19.1667H23.3333ZM28.3333 20.8333H29.9999V17.5H31.6666V15.8333H29.9999V14.1667H31.6666V12.5H28.3333V20.8333ZM13.3333 30C12.4166 30 11.6319 29.6736 10.9791 29.0208C10.3263 28.368 9.99992 27.5833 9.99992 26.6667V6.66666C9.99992 5.74999 10.3263 4.96527 10.9791 4.31249C11.6319 3.65972 12.4166 3.33333 13.3333 3.33333H33.3333C34.2499 3.33333 35.0346 3.65972 35.6874 4.31249C36.3402 4.96527 36.6666 5.74999 36.6666 6.66666V26.6667C36.6666 27.5833 36.3402 28.368 35.6874 29.0208C35.0346 29.6736 34.2499 30 33.3333 30H13.3333ZM13.3333 26.6667H33.3333V6.66666H13.3333V26.6667ZM6.66659 36.6667C5.74992 36.6667 4.9652 36.3403 4.31242 35.6875C3.65964 35.0347 3.33325 34.25 3.33325 33.3333V9.99999H6.66659V33.3333H29.9999V36.6667H6.66659Z" fill="white"/>
</svg>
