<svg width="24" height="20" viewBox="0 0 24 20" fill="none" xmlns="http://www.w3.org/2000/svg">
<g clip-path="url(#clip0_101_17)">
<mask id="mask0_101_17" style="mask-type:luminance" maskUnits="userSpaceOnUse" x="0" y="0" width="24" height="20">
<path d="M24 0.5H0V19.5H24V0.5Z" fill="white"/>
</mask>
<g mask="url(#mask0_101_17)">
<path d="M20.317 2.19206C18.7873 1.47476 17.147 0.946284 15.4319 0.643604C15.4007 0.637762 15.3695 0.652361 15.3534 0.681558C15.1424 1.06502 14.9087 1.56527 14.7451 1.95847C12.9004 1.67623 11.0652 1.67623 9.25832 1.95847C9.09465 1.55653 8.85248 1.06502 8.64057 0.681558C8.62449 0.653335 8.59328 0.638736 8.56205 0.643604C6.84791 0.945317 5.20756 1.47379 3.67693 2.19206C3.66368 2.1979 3.65233 2.20764 3.64479 2.22029C0.533392 6.97077 -0.31895 11.6045 0.0991801 16.1808C0.101072 16.2031 0.11337 16.2246 0.130398 16.2382C2.18321 17.7788 4.17171 18.7141 6.12328 19.3341C6.15451 19.3438 6.18761 19.3322 6.20748 19.3059C6.66913 18.6616 7.08064 17.9823 7.43348 17.2679C7.4543 17.226 7.43442 17.1764 7.39186 17.1598C6.73913 16.9068 6.1176 16.5983 5.51973 16.2479C5.47244 16.2197 5.46865 16.1506 5.51216 16.1175C5.63797 16.0211 5.76382 15.9209 5.88396 15.8197C5.90569 15.8012 5.93598 15.7973 5.96153 15.8089C9.88928 17.6416 14.1415 17.6416 18.023 15.8089C18.0485 15.7963 18.0788 15.8002 18.1015 15.8187C18.2216 15.9199 18.3475 16.0211 18.4742 16.1175C18.5177 16.1506 18.5149 16.2197 18.4676 16.2479C17.8697 16.6051 17.2482 16.9068 16.5945 17.1589C16.552 17.1754 16.533 17.226 16.5538 17.2679C16.9143 17.9813 17.3258 18.6606 17.7789 19.3049C17.7978 19.3322 17.8319 19.3438 17.8631 19.3341C19.8241 18.7141 21.8126 17.7788 23.8654 16.2382C23.8834 16.2246 23.8948 16.2041 23.8967 16.1817C24.3971 10.8911 23.0585 6.29534 20.3482 2.22125C20.3416 2.20764 20.3303 2.1979 20.317 2.19206ZM8.02002 13.3943C6.8375 13.3943 5.86313 12.2848 5.86313 10.9222C5.86313 9.55964 6.8186 8.45014 8.02002 8.45014C9.23087 8.45014 10.1958 9.56938 10.1769 10.9222C10.1769 12.2848 9.22141 13.3943 8.02002 13.3943ZM15.9947 13.3943C14.8123 13.3943 13.8379 12.2848 13.8379 10.9222C13.8379 9.55964 14.7933 8.45014 15.9947 8.45014C17.2056 8.45014 18.1705 9.56938 18.1516 10.9222C18.1516 12.2848 17.2056 13.3943 15.9947 13.3943Z" fill="#020618"/>
</g>
</g>
<defs>
<clipPath id="clip0_101_17">
<rect width="24" height="19" fill="white" transform="translate(0 0.5)"/>
</clipPath>
</defs>
</svg>
