<svg width="24" height="24" viewBox="0 0 24 24" fill="none" xmlns="http://www.w3.org/2000/svg">
<g clip-path="url(#clip0_101_10)">
<path fill-rule="evenodd" clip-rule="evenodd" d="M11.9642 -0.0202637C5.34833 -0.0202637 0 5.36749 0 12.0329C0 17.3609 3.42686 21.8709 8.18082 23.4672C8.77518 23.5872 8.9929 23.2078 8.9929 22.8887C8.9929 22.6093 8.97331 21.6515 8.97331 20.6535C5.64514 21.3721 4.95208 19.2167 4.95208 19.2167C4.41722 17.8198 3.62473 17.4608 3.62473 17.4608C2.53543 16.7224 3.70408 16.7224 3.70408 16.7224C4.91241 16.8023 5.54645 17.9597 5.54645 17.9597C6.61592 19.7954 8.33926 19.2767 9.03257 18.9574C9.13151 18.1791 9.44865 17.6403 9.78539 17.341C7.13094 17.0616 4.33812 16.024 4.33812 11.3942C4.33812 10.0771 4.81322 8.99957 5.56604 8.16153C5.44727 7.86227 5.03118 6.6248 5.68506 4.96855C5.68506 4.96855 6.69527 4.64921 8.97306 6.20578C9.94827 5.94194 10.954 5.80772 11.9642 5.80659C12.9744 5.80659 14.0042 5.94643 14.9552 6.20578C17.2332 4.64921 18.2434 4.96855 18.2434 4.96855C18.8973 6.6248 18.481 7.86227 18.3622 8.16153C19.1349 8.99957 19.5904 10.0771 19.5904 11.3942C19.5904 16.024 16.7976 17.0415 14.1233 17.341C14.5592 17.7201 14.9353 18.4384 14.9353 19.576C14.9353 21.1923 14.9158 22.4895 14.9158 22.8885C14.9158 23.2078 15.1337 23.5872 15.7278 23.4674C20.4818 21.8707 23.9087 17.3609 23.9087 12.0329C23.9282 5.36749 18.5603 -0.0202637 11.9642 -0.0202637Z" fill="#020618"/>
</g>
<defs>
<clipPath id="clip0_101_10">
<rect width="24" height="24" fill="white"/>
</clipPath>
</defs>
</svg>
